# xmcd
#
# Track frame offsets:
#	150
#	12344
#	23632
#	34736
#	46776
#	61521
#	75923
#	89702
#	102826
#	115396
#	128700
#	142066
#	154836
#	168045
#	181534
#	194836
#	208845
#	221673
#	234666
#	247718
#	262885
#	277102
#	290176
#	302965
#	315262
#
# Disc length: 4357 seconds
#
# Revision: 2
# Processed by: cddbd v1.5.1PL0 Copyright (c) Steve Scherf et al.
# Submitted via: audiograbber 1.83.01
#
DISCID=59110319
DTITLE=Various Artist - Memphis Shakedown - More Jug Band Classics - CD 2
DYEAR=2005
DGENRE=Blues
TTITLE0=Picaninny Jug Band - You Gotta Have That Thing
TTITLE1=Picaninny Jug Band - Tappin' That Thing
TTITLE2=Picaninny Jug Band - Bottle It Up and Go
TTITLE3=Picaninny Jug Band - I Got Good Taters
TTITLE4=Picaninny Jug Band - Come Along, Little Children
TTITLE5=Memphis Jug Band - Mary Ann Cut Off
TTITLE6=Memphis Jug Band - My Love Is Cold
TTITLE7=Memphis Jug Band - Jazzbo Stomp
TTITLE8=Memphis Jug Band - Gator Wobble
TTITLE9=Memphis Jug Band - Tear It Down, Bed Slats and All
TTITLE10=Memphis Jug Band - Boodie Bum Bum
TTITLE11=Memphis Jug Band - Take Your Fingers Off It
TTITLE12=Memphis Jug Band - Little Green Slippers
TTITLE13=Memphis Jug Band - Fishin' in the Dark
TTITLE14=Memphis Jug Band - Bottle It Up and Go
TTITLE15=Memphis Jug Band - Insane Crazy Blues
TTITLE16=Memphis Jug Band - She Done Sold It Out
TTITLE17=Memphis Jug Band - Memphis Shakedown
TTITLE18=Memphis Jug Band - Rukus Juice and Chittlin'
TTITLE19=Memphis Jug Band - My Business Ain't Right
TTITLE20=Memphis Jug Band - Jug Band Quartette
TTITLE21=Kaiser Clifton - Cash Money Blues
TTITLE22=Kaiser Clifton - Fort Worth and Denver Blues
TTITLE23=Kaiser Clifton - She'll Be Back, Someday
TTITLE24=Kaiser Clifton - Teach Me Right from Wrong
EXTD=
EXTT0=
EXTT1=
EXTT2=
EXTT3=
EXTT4=
EXTT5=
EXTT6=
EXTT7=
EXTT8=
EXTT9=
EXTT10=
EXTT11=
EXTT12=
EXTT13=
EXTT14=
EXTT15=
EXTT16=
EXTT17=
EXTT18=
EXTT19=
EXTT20=
EXTT21=
EXTT22=
EXTT23=
EXTT24=
PLAYORDER=
